# xmcd
# 
# Track frame offsets:
#     182
#     9937
#     22827
#     33230
#     43582
#     53817
#     66827
#     77835
#     88557
#     99625
#     109365
#     118880
#     125925
#     136467
#     148370
#     157830
#     166852
#     176762
#     187300
#     196530
#     207332
# 
# Disc length: 2920
# 
# Revision: 10
# Processed by: cddbd v1.5.2PL0 Copyright (c) Steve Scherf et al.
# Submitted via: fre:ac v1.0.27
# 
DISCID=290b6615
DTITLE=Various Artist - American Graffiti OST [Disc 1]
DYEAR=1973
DGENRE=Soundtrack
TTITLE0=Bill Haley And The Comets - Rock Around The Clock
TTITLE1=The Crests - Sixteen Candles
TTITLE2=Del Shannon - Runaway
TTITLE3=Frankie Lymon and The Teenagers - Why Do Fools Fall In Love
TTITLE4=Buddy Holly - That'll Be The Day
TTITLE5=Buster Brown - Fanny Mae
TTITLE6=Flash Cadillac and The Continental Kids - At The Hop
TTITLE7=Flash Cadillac and The Continental Kids - She's So Fine
TTITLE8=The Diamonds - The Stroll
TTITLE9=The Tempos - See You In September
TTITLE10=The Beach Boys - Surfin' Safari
TTITLE11=The Fleetwoods - He's The Great Imposter
TTITLE12=Chuck Berry - Almost Grown
TTITLE13=The Platters - Smoke Gets In Your Eyes
TTITLE14=The Diamonds - Little Darlin'
TTITLE15=Joey Dee and the Starlighters - Peppermint Twist
TTITLE16=The Regents - Barbara Anne
TTITLE17=The Monotones - Book Of Love
TTITLE18=Buddy Holly - Maybe Baby
TTITLE19=Lee Dorsey - Ya Ya
TTITLE20=The Platters - The Great Pretender
EXTD=YEAR: 1973
EXTT0=Bill Haley And The Comets
EXTT1=The Crests
EXTT2=Del Shannon
EXTT3=Frankie Lymon and The Teenagers
EXTT4=Buddy Holly
EXTT5=Buster Brown
EXTT6=Flash Cadillac and The Continental Kids
EXTT7=Flash Cadillac and The Continental Kids
EXTT8=The Diamonds
EXTT9=The Tempos
EXTT10=The Beach Boys
EXTT11=The Fleetwoods
EXTT12=Chuck Berry
EXTT13=The Platters
EXTT14=The Diamonds
EXTT15=Joey Dee and The Starlighters
EXTT16=The Regents
EXTT17=The Monotones
EXTT18=Buddy Holly
EXTT19=Lee Dorsey
EXTT20=The Platters
PLAYORDER=
